{"title":"Tron.Legacy.2010.DVDRip.XviD-FURiES","uid":6924834,"size":1869280321,"categoryP":"video","categoryS":"movies","magnet":"?xt=urn:btih:94857d386bc3c45c47bbe674c19769c8b4edfcb9&amp;dn=Tron.Legacy.2010.DVDRip.XviD-FURiES&amp;tr=udp%3A%2F%2Ftracker.openbittorrent.com%3A80&amp;tr=udp%3A%2F%2Fopen.demonii.com%3A1337&amp;tr=udp%3A%2F%2Ftracker.coppersurfer.tk%3A6969&amp;tr=udp%3A%2F%2Fexodus.desync.com%3A6969","seeders":0,"leechers":1,"uploader":"TvTeam","files":6,"time":1325436078,"description":". \n &lt;a href=&quot;\nhttp://www.torrenting.com&quot; rel=&quot;nofollow&quot; target=&quot;_NEW&quot;&gt;\nhttp://www.torrenting.com&lt;/a&gt;          :     Once &amp; For all ;)\n\n\n               www . Torrenting . Com \n\n(((((((((((((= Enjoy No RAR releases =))))))))))))))))))))\n\n\n...................................NFO:....................................\n\n.+-----------------------------------------------------------------------------+\n+----------------------------------FUSiON-------------------------------------+\n+-----------------------------------------------------------------------------+\n+-----------------------------------------------------------------------------+\nPLOT :------------------------------------------------------------------------+\n+-----------------------------------------------------------------------------+\n\nSam Flynn, the tech-savvy 27-year-old son of Kevin Flynn, looks into his father's \ndisappearance and finds himself pulled into the same world of fierce programs and \ngladiatorial games where his father has been living for 20 years. Along with \nKevin's loyal confidant, father and son embark on a life-and-death journey across \na visually-stunning cyber universe that has become far more advanced and \nexceedingly dangerous.\n\n+-----------------------------------------------------------------------------+\nShort Info :------------------------------------------------------------------+\n+-----------------------------------------------------------------------------+\n\nGenre:............:  Action, Adventure, Sci-Fi\nDirected by.......: Joseph Kosinski\nStarring..........: Jeff Bridges, Garrett Hedlund, Olivia Wilde, Bruce Boxleitner\nRelease Name......: Tron.Legacy.2010.DVDRip.XviD-FURiES\nRelease Group.....: FURiES\nSize..............: 1.74 GB\nVideo.............: 720x304 639 Kbps 23.976 fps\nAudio.............: MP3 320 Kbps\nLanguage:.........: English\nSubtitles.........: English, Croatian\n\n+-----------------------------------------------------------------------------+\nFull Info :-------------------------------------------------------------------+\n+-----------------------------------------------------------------------------+\n   General\n      Complete name : D:\\Filmovi\\Tron.Legacy.2010.DVDRip.XviD-FURiES.avi\n      Format : AVI\n      Format/Info : Audio Video Interleave\n      Format profile : OpenDML\n      File size : 1.74 GiB\n      Duration : 02:05:08\n      Overall bit rate : 767 Kbps\n      Writing application : Lavf51.12.1\n   Video\n      Format : xvid\n      Codec ID : xvid\n      Duration : 02:05:08\n      Bit rate : 639 Kbps\n      Width : 720 pixels\n      Height : 304 pixels\n      Display aspect ratio : 2.35:1\n      Frame rate : 23.976 fps\n      Resolution : 24 bits\n      Bits/(Pixel*Frame) : 0.122\n      Stream size : 1.45 GiB (83%)\n   Audio #1\n      ID : 1\n      Format : MPEG Audio\n      Format version : Version 1\n      Format profile : Layer 3\n      Codec ID : 55\n      Codec ID/Hint : MP3\n      Duration : 2h 5mn\n      Bit rate mode : Constant\n      Bit rate : 320 Kbps\n      Channel(s) : 2 channels\n      Sampling rate : 44.1 KHz\n      Resolution : 16 bits\n      Stream size : 286 MiB (16%)\n      Alignment : Aligned on interleaves\n      Interleave, duration : 26 ms (0.63 video frame)\n      Interleave, preload duration : 26 ms\n      Writing library : LAME3.97\n+-----------------------------------------------------------------------------+\nIMDB : -----------------------------------------------------------------------+\n+-----------------------------------------------------------------------------+\n &lt;a href=&quot;\nhttp://www.imdb.com/title/tt1104001/&quot; rel=&quot;nofollow&quot; target=&quot;_NEW&quot;&gt;\nhttp://www.imdb.com/title/tt1104001/&lt;/a&gt;\n\n+-----------------------------------------------------------------------------+\nScreens :---------------------------------------------------------------------+\n+-----------------------------------------------------------------------------+\n\n[img]http://img718.imageshack.us/img718/1208/tronnnz.jpg[/img]\n[img]http://img822.imageshack.us/img822/474/tronnnn.jpg[/img]\n[img]http://img854.imageshack.us/img854/3553/tronnnnn.jpg[/img]\n[img]http://img508.imageshack.us/img508/1598/tronnnnnn.jpg[/img]\n[img]http://img849.imageshack.us/img849/1633/tronnnnnnn.jpg[/img]\n\n+-----------------------------------------------------------------------------+\nGreetings and Respect :-------------------------------------------------------+\n+-----------------------------------------------------------------------------+\n\nViSiON, CM8, BHRG, NODLABS, AMIABLE, THUGLiNE, NeDiVx, Larceny, \nPRESTiGE, HD4U, LOST, PSYCHD  ...\n\n+-----------------------------------------------------------------------------+\n+----------------------------------FUSiON-------------------------------------+\n+-----------------------------------------------------------------------------+","torrent":{"xt":"urn:btih:94857d386bc3c45c47bbe674c19769c8b4edfcb9","amp;dn":"Tron.Legacy.2010.DVDRip.XviD-FURiES","amp;tr":["udp%3A%2F%2Ftracker.openbittorrent.com%3A80","udp%3A%2F%2Fopen.demonii.com%3A1337","udp%3A%2F%2Ftracker.coppersurfer.tk%3A6969","udp%3A%2F%2Fexodus.desync.com%3A6969"],"infoHash":"94857d386bc3c45c47bbe674c19769c8b4edfcb9","infoHashBuffer":{"type":"Buffer","data":[148,133,125,56,107,195,196,92,71,187,230,116,193,151,105,200,180,237,252,185]},"announce":[],"urlList":[]}}